Coordinates
version=1
nRows=14
nColumns=33
inDegrees=yes

Units are S.I. units (second, meters, Newtons, ...)
Angles are in degrees.

endheader
time	ground_thorax_rot_x	ground_thorax_rot_y	ground_thorax_rot_z	ground_thorax_tx	ground_thorax_ty	ground_thorax_tz	clav_prot_r	clav_elev_r	scapula_abduction_r	scapula_elevation_r	scapula_upward_rot_r	scapula_winging_r	shoulder_elv_r	plane_of_elev_r	axial_rot_r	elbow_flexion_r	pro_sup_r	wrist_flex_r	wrist_dev_r	clav_prot_l	clav_elev_l	scapula_abduction_l	scapula_elevation_l	scapula_upward_rot_l	scapula_winging_l	shoulder_elv_l	plane_of_elev_l	axial_rot_l	elbow_flexion_l	pro_sup_l	wrist_flex_l	wrist_dev_l
      6.25000000	     38.73103024	      7.82132766	      9.78850956	   -122.90030704	    803.78430587	      1.34857143	     17.31388128	     41.95905567	     45.00000000	     45.00000000	    -31.93791484	   2796.46842840	  -2452.23706809	     33.54362037	     51.06846875	   1461.95654612	    197.77596415	      9.05353937	      2.66995997	      9.20027031	    -45.00000000	    -45.00000000	     45.00000000	    -18.95713226	  -2787.98305736	   -456.90312502	    135.59870871	   -168.16729840	   2167.25477662	     29.44938801	     11.09994039	    -21.29715397
      6.26000000	     38.83635976	      7.65821429	      9.38260941	   -118.35375540	    802.17953769	      1.34683746	     17.38377222	     42.04047982	     45.00000000	     45.00000000	    -31.13823540	   2796.85697749	  -2452.44097643	     33.44642328	     51.24311787	   1461.76090175	    199.10838798	      8.92335074	      2.56199356	      8.93575365	    -45.00000000	    -45.00000000	     45.00000000	    -18.23252869	  -2788.48504472	   -457.03869158	    135.32284101	   -167.34788514	   2166.86166168	     30.17991917	     11.41592044	    -21.24387304
      6.27000000	     38.89950034	      7.96650909	      9.50944251	   -113.86841451	    800.60381206	      1.32749764	     17.23869628	     42.18634801	     45.00000000	     45.00000000	    -31.18285323	   2796.86372462	  -2452.81696670	     33.82292566	     51.74895774	   1461.38189616	    200.17036771	      8.84409209	      2.31783977	      9.18417075	    -45.00000000	    -45.00000000	     45.00000000	    -18.16976001	  -2788.97080573	   -457.26609628	    135.22743142	   -166.51142970	   2166.64773270	     30.74493983	     11.35067175	    -21.13195882
      6.28000000	     39.02049860	      7.81809617	      9.24769389	   -109.47132792	    799.07612776	      1.29557357	     17.17021909	     42.37075836	     45.00000000	     45.00000000	    -30.46046850	   2797.37172799	  -2452.94375444	     33.63963943	     52.29856904	   1461.14284943	    201.30162848	      8.72223408	      2.13892357	      8.94700764	    -45.00000000	    -45.00000000	     45.00000000	    -17.63388668	  -2789.56049490	   -457.46219448	    135.22975835	   -165.54543012	   2166.37490881	     31.38524682	     11.57782263	    -21.08726322
      6.29000000	     39.17586636	      7.45497693	      8.73397792	   -105.17298600	    797.60845660	      1.25590652	     17.19752741	     42.40945644	     45.00000000	     45.00000000	    -29.30998498	   2797.83387382	  -2453.21679613	     33.41380204	     52.67568534	   1460.78566547	    202.76409376	      8.59938978	      2.05209967	      8.53876452	    -45.00000000	    -45.00000000	     45.00000000	    -16.76467065	  -2789.91504098	   -457.68719934	    134.88277712	   -164.44956889	   2165.91798329	     32.24153051	     11.94323901	    -21.05340290
      6.30000000	     39.26860800	      7.80299616	      8.87129543	   -100.98724678	    796.21219327	      1.21257488	     17.02036669	     42.60445960	     45.00000000	     45.00000000	    -29.31097459	   2797.97582856	  -2453.44154473	     33.46597281	     53.49146997	   1460.55883195	    203.94805810	      8.46195408	      1.84284512	      8.69388580	    -45.00000000	    -45.00000000	     45.00000000	    -16.87637478	  -2790.48206447	   -457.84384358	    134.81825099	   -163.40876320	   2165.69733882	     32.88347904	     11.88516559	    -20.96655701
      6.31000000	     39.43532990	      7.28108482	      8.17711728	    -96.93714900	    794.89823660	      1.16963412	     17.10986669	     42.67807172	     45.00000000	     45.00000000	    -28.16092467	   2798.50215481	  -2453.67590769	     33.22593800	     53.96057581	   1460.13972110	    205.77671817	      8.30116957	      1.82249019	      8.16921353	    -45.00000000	    -45.00000000	     45.00000000	    -15.90710288	  -2790.96153134	   -457.92738038	    134.46844414	   -161.82737174	   2165.13460126	     33.88066931	     12.28494724	    -20.93900054
      6.32000000	     39.48601485	      7.59044829	      8.31423020	    -93.02595091	    793.67260074	      1.12990248	     17.04939734	     42.80834161	     45.00000000	     45.00000000	    -28.30937963	   2798.63153689	  -2453.99894861	     33.35420512	     54.96239064	   1459.75627870	    207.29945103	      8.15460542	      1.69678832	      8.41482809	    -45.00000000	    -45.00000000	     45.00000000	    -15.99214939	  -2791.46613350	   -458.06423862	    134.35203928	   -160.59822799	   2164.80786524	     34.63077498	     12.22519100	    -20.86346411
      6.33000000	     39.60735549	      7.53235992	      8.11165552	    -89.28928944	    792.54998090	      1.09687787	     17.03619855	     42.93242692	     45.00000000	     45.00000000	    -27.76074193	   2798.95213349	  -2454.25604526	     33.20804189	     55.80817272	   1459.40869023	    209.04393808	      7.97340051	      1.64329341	      8.33742973	    -45.00000000	    -45.00000000	     45.00000000	    -15.62713417	  -2791.96986072	   -458.20973098	    134.24944773	   -159.32233835	   2164.40125028	     35.41752625	     12.30404278	    -20.79413627
      6.34000000	     39.73153596	      7.16467896	      7.57162134	    -85.74425945	    791.53929361	      1.07225635	     16.99582151	     43.13079179	     45.00000000	     45.00000000	    -26.92331720	   2799.36661573	  -2454.46424969	     33.02681437	     56.51721725	   1458.98187979	    211.28327584	      7.73953913	      1.63253171	      8.00220508	    -45.00000000	    -45.00000000	     45.00000000	    -14.96980723	  -2792.42559648	   -458.23575988	    134.00126294	   -158.15835205	   2163.98205996	     36.31709779	     12.45641162	    -20.74642045
      6.35000000	     39.89199346	      6.95879879	      7.18076231	    -82.40008879	    790.64712564	      1.05584645	     16.97753389	     43.28511630	     45.00000000	     45.00000000	    -26.24265395	   2799.63952887	  -2454.68796532	     32.86497525	     57.45856167	   1458.52072033	    214.05586506	      7.45795149	      1.69894477	      7.80041862	    -45.00000000	    -45.00000000	     45.00000000	    -14.53674499	  -2792.87810499	   -458.37367107	    133.83522803	   -156.97372128	   2163.63234028	     37.18099675	     12.52555416	    -20.69846300
      6.36000000	     39.80675400	      7.61331253	      7.67080833	    -79.25694238	    789.87381855	      1.04585322	     16.19628572	     42.55588967	     45.00000000	     44.67558844	    -26.62181385	   2799.36717808	  -2454.98605766	     33.08087055	     58.45002131	   1458.12557363	    215.75539785	      7.26369682	      1.50069762	      8.10062266	    -45.00000000	    -45.00000000	     45.00000000	    -16.14331209	  -2793.17635641	   -458.07300774	    133.33149006	   -156.80749142	   2163.71118422	     37.71486254	     12.48292983	    -20.56439388
      6.37000000	     39.80997071	      7.65832550	      7.59438687	    -76.31684700	    789.21589764	      1.04029861	     16.31915455	     42.64485910	     45.00000000	     44.46178336	    -26.39463901	   2799.62616445	  -2455.01567788	     32.90325760	     59.29980291	   1457.75312903	    217.52311267	      7.10823949	      1.57335749	      8.14478146	    -45.00000000	    -45.00000000	     45.00000000	    -16.13390096	  -2793.60585995	   -458.00529251	    133.22893568	   -156.30050288	   2163.40009796	     38.13247216	     12.50933883	    -20.45004494
      6.38000000	     39.86001535	      7.46444110	      7.20453334	    -73.55028787	    788.66229780	      1.03696498	     16.26945018	     42.55262065	     45.00000000	     44.32913134	    -25.66012382	   2799.71664822	  -2455.25125103	     32.79153879	     60.18737307	   1457.43206043	    219.70985315	      6.86982041	      1.62664599	      8.00250140	    -45.00000000	    -45.00000000	     45.00000000	    -15.39515305	  -2793.92001533	   -458.20177834	    133.27244302	   -155.76620419	   2163.22250209	     38.56430973	     12.51919678	    -20.39217253
